<?xml version="1.0" encoding="UTF-8"?>
<svg xmlns="http://www.w3.org/2000/svg" id="Layer_1" data-name="Layer 1" viewBox="0 0 24 24">
  <path d="M21,21.5v2.5h-3v-2.5c0-1.169-.913-2.229-2-2.5v5h-3v-3.12c-.319,.07-.65,.12-1,.12s-.681-.05-1-.12v3.12h-3v-5c-1.086,.271-2,1.331-2,2.5v2.5H3v-2.5c0-3.032,2.467-5.5,5.5-5.5h.75c.601,.784,1.317,1.864,2.75,2,1.429-.133,2.144-1.217,2.755-1.993l.745-.007c3.032,0,5.5,2.468,5.5,5.5Zm-9-6.5c3.075,0,5.613-2.325,5.957-5.31,.441-.928,1.043-2.654,1.043-5.19,0-3-3.5-4.5-7-4.5-1.974,0-3.947,.477-5.293,1.432l.802,.843c2.288,2.407,4.799,4.588,7.491,6.525,.101,1.721-1.267,3.206-3,3.2-1.744,.007-3.111-1.495-3-3.225,.471-.344,.943-.688,1.405-1.045-1.516-1.284-2.976-2.637-4.346-4.078l-.688-.724c-.237,.468-.371,.991-.371,1.571,0,2.536,.602,4.262,1.043,5.19,.344,2.984,2.882,5.31,5.957,5.31Z"/>
</svg>
